<?xml version="1.0" standalone="no"?>
<!DOCTYPE svg PUBLIC "-//W3C//DTD SVG 20010904//EN"
 "http://www.w3.org/TR/2001/REC-SVG-20010904/DTD/svg10.dtd">
<svg version="1.0" xmlns="http://www.w3.org/2000/svg"
 width="519.000000pt" height="312.000000pt" viewBox="0 0 519.000000 312.000000"
 preserveAspectRatio="xMidYMid meet">

<g transform="translate(0.000000,312.000000) scale(0.100000,-0.100000)"
fill="#000000" stroke="none">
<path d="M1403 3110 c-13 -5 -23 -18 -23 -29 0 -11 -6 -22 -12 -24 -10 -4 -10
-6 0 -6 14 -1 17 -31 2 -31 -5 0 -10 -5 -10 -11 0 -6 7 -8 16 -5 8 3 13 2 10
-3 -3 -5 1 -12 10 -15 8 -3 12 -10 9 -16 -6 -10 -3 -11 50 -15 45 -3 148 -16
165 -21 9 -2 16 -13 17 -25 2 -16 -3 -20 -16 -16 -10 2 -18 -1 -17 -7 0 -6 -2
-11 -5 -11 -3 0 -13 -6 -21 -13 -9 -7 -24 -9 -33 -5 -13 4 -16 3 -11 -5 5 -8
-1 -12 -18 -12 -14 0 -28 -4 -31 -10 -3 -5 -11 -10 -16 -10 -6 0 -7 5 -4 10 3
6 -1 10 -9 10 -9 0 -16 4 -16 9 0 5 -9 13 -20 16 -11 3 -20 14 -20 23 0 14 -2
15 -10 2 -7 -12 -11 -10 -19 10 -12 31 -12 30 -15 -47 -1 -35 -6 -66 -11 -70
-4 -5 -5 3 -2 17 6 23 5 22 -5 -2 -7 -16 -20 -28 -30 -28 -15 0 -17 -3 -8 -19
13 -26 13 -31 -5 -31 -8 0 -15 -7 -15 -15 0 -8 -6 -12 -13 -9 -17 6 -51 -31
-42 -45 6 -10 -10 -15 -42 -14 -7 1 -13 -2 -13 -6 0 -4 6 -13 13 -20 10 -11 8
-12 -10 -7 -36 11 -59 -11 -55 -52 4 -32 3 -34 -17 -29 -11 3 -21 1 -21 -4 0
-5 -7 -9 -15 -9 -8 0 -15 -3 -15 -8 0 -4 -14 -13 -30 -20 -17 -8 -28 -18 -24
-23 8 -13 52 -11 57 4 2 6 8 9 12 5 13 -12 -6 -28 -33 -28 -15 0 -33 -4 -40
-9 -18 -11 7 -21 53 -21 19 0 41 -7 49 -16 18 -17 21 -44 6 -44 -5 0 -10 5
-10 11 0 5 -4 7 -10 4 -5 -3 -10 -1 -10 4 0 6 -5 11 -11 11 -5 0 -7 -4 -4 -10
3 -5 1 -10 -4 -10 -6 0 -11 -4 -11 -8 0 -12 80 -17 217 -15 l111 2 -60 -120
-59 -119 -81 -41 c-44 -22 -89 -38 -99 -36 -16 4 -19 -1 -19 -33 0 -21 7 -45
15 -54 8 -8 15 -27 15 -43 0 -22 2 -25 10 -13 14 22 12 4 -4 -35 -17 -39 -18
-40 -48 -24 -15 8 -19 8 -14 0 4 -6 3 -11 -1 -11 -5 0 -14 9 -21 20 -7 12 -23
25 -35 31 -12 5 -38 19 -58 32 -119 72 -144 85 -152 80 -6 -3 -7 -1 -4 5 7 11
-83 72 -106 72 -7 0 -18 5 -23 10 -26 26 -82 47 -101 37 -15 -8 -16 -7 -6 3
10 11 7 17 -18 32 -17 10 -34 16 -39 13 -4 -3 -10 -1 -12 4 -4 12 -208 -9
-208 -22 0 -13 -52 -57 -68 -57 -7 0 -10 -4 -7 -10 6 -10 -3 -13 -37 -13 -20
0 -38 -47 -35 -89 1 -16 2 -28 2 -28 0 0 15 4 33 9 38 11 43 5 7 -9 -17 -6
-23 -15 -20 -30 6 -32 12 -38 68 -58 28 -11 72 -29 96 -40 l43 -20 -38 -5
c-22 -3 -48 -5 -59 -5 -42 3 -75 -2 -75 -12 0 -5 13 -10 29 -10 17 0 33 -4 36
-10 3 -5 1 -10 -5 -10 -6 0 -9 -4 -6 -8 3 -5 24 -10 48 -11 67 -4 87 -7 94
-14 4 -4 13 -2 21 4 10 9 13 8 13 -1 0 -9 11 -11 35 -7 23 4 35 2 35 -6 0 -7
5 -4 11 6 8 14 18 17 36 12 16 -4 22 -2 18 5 -3 5 -1 10 4 10 6 0 12 -4 12
-10 1 -5 2 -14 3 -20 0 -5 8 -15 16 -22 12 -11 12 -11 2 4 -8 10 -9 19 -3 22
5 3 12 0 14 -6 4 -10 8 -10 15 1 6 9 17 11 28 6 11 -4 37 -9 59 -12 22 -2 42
-7 45 -10 3 -3 -10 -3 -28 -2 -21 3 -36 -1 -42 -11 -8 -12 -10 -11 -10 5 0 15
-2 17 -9 6 -5 -7 -14 -10 -20 -6 -7 4 -18 2 -25 -4 -9 -8 -22 -8 -39 -2 -17 7
-28 7 -32 1 -6 -10 -127 -6 -144 4 -5 3 -11 0 -14 -6 -3 -10 -9 -11 -26 0 -25
15 -45 16 -36 2 8 -13 -1 -13 -26 1 -14 7 -24 7 -33 0 -7 -6 -15 -9 -18 -6 -2
3 -50 7 -106 8 l-102 4 0 -99 c0 -80 3 -98 15 -98 29 0 42 -59 31 -140 -5 -41
-14 -78 -19 -81 -6 -4 -7 -28 -3 -56 4 -36 2 -54 -9 -68 -12 -17 -14 -101 -15
-572 l0 -553 2066 0 c1779 0 2065 2 2061 14 -3 8 1 17 9 20 9 4 14 -1 14 -14
0 -20 9 -20 520 -20 l520 0 0 138 c0 92 -3 132 -10 122 -5 -8 -10 -28 -10 -45
-1 -28 -20 -65 -34 -65 -3 0 -6 14 -6 30 0 17 4 30 10 30 5 0 12 17 15 38 10
60 16 70 25 47 5 -11 9 447 9 1018 1 939 -1 1040 -15 1062 -9 14 -12 25 -6 25
6 0 13 -6 15 -12 3 -7 6 -3 6 10 1 19 -3 21 -24 16 -20 -5 -30 0 -46 20 -11
14 -27 26 -35 26 -8 0 -14 7 -14 15 0 18 -41 20 -58 3 -17 -17 -15 -45 6 -57
14 -8 15 -12 3 -23 -10 -9 -12 -10 -7 0 5 8 0 12 -14 12 -16 0 -20 4 -16 16 3
8 2 12 -3 9 -5 -3 -12 4 -16 15 -3 11 -11 20 -16 20 -5 0 -9 5 -9 11 0 15 -56
69 -64 62 -3 -4 -6 1 -6 10 0 12 -8 17 -27 17 l-28 -1 25 -14 c24 -14 24 -14
3 -15 -12 0 -28 7 -37 15 -8 8 -20 15 -26 15 -6 0 -9 4 -5 9 3 5 -2 17 -11 26
-14 13 -19 14 -25 3 -14 -21 -10 0 6 39 9 21 20 40 26 44 7 4 4 9 -6 12 -9 4
-14 3 -11 -2 5 -8 -38 -51 -52 -51 -4 0 -12 -8 -19 -19 -9 -15 -7 -23 13 -45
14 -14 20 -26 15 -26 -5 0 -13 5 -16 10 -3 6 -18 9 -33 9 -17 -1 -21 -3 -9 -6
9 -2 17 -10 17 -17 0 -23 -13 -26 -33 -9 -14 13 -18 14 -12 3 14 -23 16 -48 5
-55 -6 -4 -13 1 -16 9 -3 9 -15 16 -26 16 -12 0 -18 -5 -15 -13 2 -6 -1 -18
-8 -24 -10 -10 -14 -9 -19 3 -3 9 -1 12 4 9 15 -9 12 4 -4 20 -7 8 -16 11 -20
8 -8 -8 -8 -4 3 33 8 28 7 31 -10 27 -10 -3 -19 -9 -19 -14 0 -5 -14 -9 -31
-9 -26 0 -31 3 -26 20 3 13 -2 25 -15 34 -11 8 -15 17 -10 20 6 3 22 -8 36
-25 14 -17 26 -26 26 -21 0 6 -11 24 -25 40 -19 23 -22 32 -12 42 9 10 9 14
-1 17 -6 3 -10 9 -7 14 4 5 0 6 -8 3 -8 -3 -17 2 -20 13 -2 10 -8 25 -11 34
-5 10 -2 16 9 16 8 0 15 -9 15 -19 0 -11 4 -17 9 -13 6 3 15 -4 21 -15 6 -11
19 -20 30 -20 10 0 21 -5 23 -10 3 -6 4 -5 3 2 -1 7 -11 17 -22 22 -19 8 -44
48 -44 70 0 5 9 1 19 -8 18 -17 20 -17 31 1 7 12 13 14 16 6 4 -9 13 -9 31 -2
18 7 30 6 37 -1 13 -13 29 -13 20 1 -4 7 2 7 17 -1 31 -16 39 -25 16 -17 -11
4 -16 3 -12 -3 4 -6 23 -9 43 -6 28 3 41 -1 54 -17 10 -11 21 -17 25 -13 4 4
2 10 -5 15 -7 4 -10 23 -7 51 3 32 0 49 -12 62 -11 13 -12 18 -3 18 8 0 10 8
7 23 -5 19 -2 22 24 23 17 1 25 -2 19 -6 -9 -6 -9 -9 -1 -14 6 -4 9 -11 7 -15
-3 -4 1 -8 9 -8 8 0 16 6 19 13 3 8 0 11 -10 7 -19 -7 -18 7 4 24 9 8 12 12 5
9 -6 -3 -19 -3 -29 1 -16 6 -16 7 2 14 16 6 16 8 2 8 -10 1 -22 10 -28 21 -11
21 -60 29 -60 10 0 -6 -11 -16 -25 -22 -21 -10 -28 -8 -40 8 -8 10 -15 15 -15
11 0 -4 -9 -3 -19 3 -15 7 -23 6 -34 -5 -13 -12 -17 -12 -31 4 -13 14 -32 19
-78 20 -45 0 -64 5 -74 18 -9 11 -13 13 -12 4 2 -7 -3 -16 -11 -19 -8 -2 -11
0 -8 5 4 6 -2 18 -12 27 -17 16 -19 16 -25 0 -4 -9 -14 -14 -24 -12 -15 4 -17
0 -14 -29 2 -18 9 -33 15 -33 5 0 3 -8 -6 -18 -10 -10 -17 -33 -17 -50 0 -18
-5 -32 -11 -32 -6 0 -7 -5 -2 -12 11 -19 14 -48 4 -48 -5 0 -12 17 -16 38 l-8
37 -10 -38 c-10 -43 -8 -47 22 -50 27 -2 28 -17 1 -17 -17 0 -20 -7 -20 -39 0
-62 -7 -71 -53 -71 -44 0 -47 9 -4 12 14 1 24 6 21 10 -2 4 4 11 13 17 10 5
15 12 12 16 -4 3 -13 -1 -21 -9 -12 -11 -18 -12 -27 -3 -8 8 -11 8 -11 -2 0
-10 -3 -11 -13 -2 -8 6 -17 8 -20 4 -4 -3 -7 0 -7 8 0 9 -3 10 -8 3 -9 -15
-57 -30 -48 -16 3 6 -4 6 -18 -1 -13 -7 -22 -16 -19 -20 3 -5 -4 -4 -15 2 -11
6 -32 11 -46 11 -15 0 -25 5 -24 12 2 7 -17 13 -51 15 -51 4 -109 32 -94 46 3
4 -2 10 -12 13 -11 5 -22 2 -29 -7 -13 -17 -66 -22 -66 -6 0 6 -3 8 -6 4 -4
-3 -14 3 -23 15 -10 11 -28 22 -42 23 -38 5 -79 23 -79 36 0 6 -6 9 -14 6 -8
-3 -17 0 -20 8 -10 28 34 28 63 1 15 -14 36 -26 47 -25 18 0 18 1 -1 9 -11 4
-30 20 -43 34 -15 19 -29 25 -42 21 -10 -3 -21 -2 -24 3 -5 9 62 28 69 20 2
-2 5 -12 7 -23 4 -24 34 -48 51 -42 7 3 5 6 -5 6 -16 1 -19 23 -5 37 13 14 -5
79 -30 106 -14 14 -23 33 -21 43 5 26 22 19 32 -14 5 -17 13 -31 17 -31 5 0
24 -14 43 -31 l35 -30 4 53 3 53 2 -56 c2 -53 19 -88 35 -72 4 3 7 2 7 -3 0
-17 79 -3 83 14 4 15 5 15 6 0 1 -11 9 -18 20 -18 14 0 18 5 14 20 -3 11 0 20
6 20 6 0 11 -9 11 -20 0 -16 5 -20 25 -17 13 1 28 7 32 12 4 4 2 5 -4 1 -7 -4
-14 -2 -14 3 -1 6 -3 16 -4 21 -1 6 -3 26 -4 47 -1 36 -1 36 -21 18 -12 -10
-18 -25 -16 -32 3 -7 1 -15 -4 -18 -6 -4 -10 15 -10 44 l0 51 -51 0 c-27 0
-48 4 -45 9 3 5 15 7 26 4 16 -4 20 0 20 21 0 26 0 26 -79 26 -54 0 -81 -4
-84 -12 -4 -10 -6 -10 -6 0 -1 9 -228 12 -1103 11 -633 0 -1113 -4 -1125 -9z
m2280 -20 c3 -11 1 -18 -4 -14 -5 3 -9 12 -9 20 0 20 7 17 13 -6z m-1663 -15
c0 -8 -9 -15 -20 -15 -11 0 -20 7 -20 15 0 8 9 15 20 15 11 0 20 -7 20 -15z
m1793 -50 c-7 -21 -13 -19 -13 6 0 11 4 18 10 14 5 -3 7 -12 3 -20z m-46 -52
c-3 -10 -5 -2 -5 17 0 19 2 27 5 18 2 -10 2 -26 0 -35z m547 7 c-6 -6 -10 -3
-10 10 0 13 4 16 10 10 7 -7 7 -13 0 -20z m-2299 -9 c-3 -3 -10 1 -15 9 -8 13
-10 13 -10 1 0 -8 -3 -12 -6 -8 -3 3 -3 11 1 17 5 8 11 8 21 -1 8 -6 12 -14 9
-18z m2493 -45 c13 -21 21 -40 20 -42 -7 -6 -77 89 -72 97 7 12 24 -6 52 -55z
m-2428 18 c0 -2 -7 -4 -15 -4 -8 0 -15 4 -15 10 0 5 7 7 15 4 8 -4 15 -8 15
-10z m-365 -10 c13 -5 14 -8 3 -15 -22 -14 -58 -10 -58 6 0 16 26 20 55 9z
m43 -8 c-7 -8 -15 -12 -17 -11 -5 6 10 25 20 25 5 0 4 -6 -3 -14z m529 -3 c2
-6 -4 -10 -13 -9 -10 2 -20 8 -22 15 -3 8 3 12 14 9 9 -1 19 -8 21 -15z m1147
-14 c5 -5 -12 -7 -40 -6 -39 1 -48 5 -40 14 11 13 64 8 80 -8z m-209 1 c3 -5
2 -10 -4 -10 -5 0 -13 5 -16 10 -3 6 -2 10 4 10 5 0 13 -4 16 -10z m105 -10
c0 -13 -11 -13 -30 0 -12 8 -11 10 8 10 12 0 22 -4 22 -10z m240 -160 c0 -5
-5 -10 -11 -10 -5 0 -7 5 -4 10 3 6 8 10 11 10 2 0 4 -4 4 -10z m679 -11 c-16
-10 -23 -4 -14 10 3 6 11 8 17 5 6 -4 5 -9 -3 -15z m-197 -61 c-9 -9 -15 -9
-24 0 -9 9 -7 12 12 12 19 0 21 -3 12 -12z m-2597 -27 c-6 -5 -23 -12 -40 -16
l-30 -6 25 15 c28 17 60 22 45 7z m2429 -3 c-5 -9 -2 -9 9 1 15 12 17 11 19
-5 0 -11 2 -24 2 -31 3 -30 16 -22 16 10 l0 36 145 -2 146 -2 6 -25 c3 -14 9
-30 14 -36 10 -12 27 -211 19 -223 -7 -12 -100 -22 -100 -12 0 5 -28 9 -63 8
-74 -1 -86 4 -79 38 3 19 0 25 -14 25 -16 0 -17 -2 -4 -10 13 -8 12 -10 -3
-10 -14 0 -16 -4 -8 -18 9 -16 6 -19 -19 -19 -21 0 -29 6 -33 22 -3 17 0 21
14 18 9 -3 20 0 24 6 3 6 3 11 -2 10 -15 -4 -63 13 -63 22 0 5 6 6 13 3 8 -3
20 2 27 11 8 10 9 15 2 15 -7 0 -9 7 -5 17 4 11 3 14 -5 9 -7 -4 -12 -1 -12 9
0 9 5 13 10 10 6 -3 10 3 10 15 0 12 -4 18 -10 15 -16 -10 -12 11 5 25 8 7 14
22 14 34 -1 20 -2 20 -6 1 -7 -29 -19 -39 -35 -29 -7 5 -23 9 -35 9 -17 1 -20
-2 -11 -12 6 -7 16 -13 23 -13 13 0 25 -21 25 -45 0 -8 -10 -20 -22 -26 l-22
-12 18 28 c13 20 15 30 7 33 -6 2 -18 10 -25 18 -8 8 -19 14 -24 14 -6 0 -9
11 -8 24 1 20 4 22 19 14 16 -8 17 -7 8 10 -8 15 -8 22 2 25 18 8 19 8 11 -5z
m-2609 -8 c-3 -5 -15 -10 -26 -10 -10 0 -19 -4 -19 -10 0 -5 -5 -10 -12 -10
-6 0 -3 9 7 20 18 20 62 29 50 10z m3436 -3 c-6 -8 -8 -17 -4 -21 4 -4 -1 -4
-11 0 -18 7 -18 8 0 21 23 17 30 17 15 0z m-1278 -24 c-7 -2 -19 -2 -25 0 -7
3 -2 5 12 5 14 0 19 -2 13 -5z m1002 -3 c3 -6 -1 -7 -9 -4 -18 7 -21 14 -7 14
6 0 13 -4 16 -10z m-1105 -14 c0 -2 -7 -6 -15 -10 -8 -3 -15 -1 -15 4 0 6 7
10 15 10 8 0 15 -2 15 -4z m-60 -36 c0 -5 -2 -10 -4 -10 -3 0 -8 5 -11 10 -3
6 -1 10 4 10 6 0 11 -4 11 -10z m1220 -20 c0 -5 -5 -10 -11 -10 -5 0 -7 5 -4
10 3 6 8 10 11 10 2 0 4 -4 4 -10z m-593 -6 c-3 -3 -12 -4 -19 -1 -8 3 -5 6 6
6 11 1 17 -2 13 -5z m-2747 -14 c0 -5 -7 -10 -16 -10 -8 0 -12 5 -9 10 3 6 10
10 16 10 5 0 9 -4 9 -10z m2250 0 c18 -12 2 -12 -25 0 -13 6 -15 9 -5 9 8 0
22 -4 30 -9z m1390 -34 c0 -6 -7 -1 -15 10 -8 10 -15 23 -15 28 0 6 7 1 15
-10 8 -10 15 -23 15 -28z m160 -38 c0 -6 -13 4 -30 22 -16 18 -30 38 -30 44 1
15 60 -51 60 -66z m-2433 37 c-4 -32 -13 -40 -30 -27 -8 7 -17 9 -21 5 -4 -4
-4 1 0 12 15 41 57 49 51 10z m2504 -18 c-10 -9 -11 -8 -5 6 3 10 9 15 12 12
3 -3 0 -11 -7 -18z m-2339 -17 c-3 -18 0 -30 7 -30 6 0 11 -4 11 -10 0 -5 -6
-9 -12 -7 -7 1 -14 -9 -16 -23 -2 -18 0 -21 6 -11 7 10 13 6 23 -18 14 -31 47
-56 36 -27 -4 9 2 17 14 21 12 4 18 12 15 21 -3 8 1 14 9 14 8 0 14 -5 13 -12
-2 -6 12 -16 30 -21 17 -5 32 -16 32 -24 0 -8 -23 -59 -50 -112 l-50 -98 -86
-44 c-47 -24 -94 -54 -103 -65 -13 -17 -21 -20 -35 -12 -13 8 -33 -1 -89 -40
-40 -27 -82 -54 -94 -61 -23 -11 -23 -11 2 25 37 55 34 96 -12 131 -20 15 -38
23 -40 18 -2 -6 -26 -44 -53 -84 -36 -53 -50 -83 -50 -108 0 -63 -194 -305
-287 -360 -24 -14 -46 -23 -49 -20 -9 9 36 88 138 240 90 133 99 151 94 181
-9 46 -67 95 -92 78 -5 -4 -38 -56 -72 -117 -73 -129 -185 -271 -261 -333 -29
-24 -55 -41 -58 -38 -11 10 23 87 98 224 83 149 91 179 64 232 -21 41 -68 44
-138 8 l-40 -20 21 34 c11 18 47 78 81 133 70 113 76 146 35 194 l-26 31 169
0 c92 0 178 -3 191 -6 23 -7 31 -34 10 -34 -10 0 -10 -2 0 -9 8 -4 12 -12 10
-17 -1 -5 6 -10 18 -12 20 -3 20 -5 -13 -93 -33 -88 -33 -90 -17 -125 15 -31
60 -73 67 -63 2 2 29 50 61 106 l58 103 -22 45 c-22 46 -62 85 -86 85 -10 0
-10 5 4 18 9 11 20 17 25 15 4 -2 14 3 23 11 8 9 23 16 32 15 15 0 14 -1 -1
-8 -17 -6 -17 -8 -3 -20 19 -16 35 -7 33 19 -1 18 -5 22 -23 19 -12 -1 -22 23
-17 41 3 11 11 16 19 13 8 -3 14 1 14 9 0 7 8 14 19 14 10 0 17 -5 14 -12 -2
-6 3 -14 11 -17 11 -4 16 -19 16 -47 l0 -40 41 6 c30 5 43 3 50 -7 6 -10 9
-10 9 -1 0 19 19 14 51 -12 22 -19 38 -24 70 -22 25 2 46 -2 55 -11 8 -8 14
-10 14 -4 0 6 7 11 15 11 9 0 15 9 15 23 0 13 5 28 11 34 7 7 8 19 4 30 -22
51 -12 82 26 83 12 0 14 -7 11 -30z m2132 14 c3 -8 2 -12 -4 -9 -6 3 -10 10
-10 16 0 14 7 11 14 -7z m-2424 2 c0 -3 -4 -8 -10 -11 -5 -3 -10 -1 -10 4 0 6
5 11 10 11 6 0 10 -2 10 -4z m718 -26 c-5 -33 6 -39 21 -12 9 15 10 15 11 0 0
-9 7 -24 16 -32 14 -15 14 -16 -4 -16 -29 0 -36 -28 -9 -36 12 -4 25 -12 30
-18 9 -13 29 13 20 27 -3 5 5 2 18 -6 29 -17 125 -23 143 -8 8 7 24 7 47 1 41
-12 119 -10 119 2 0 5 -4 6 -10 3 -5 -3 -10 0 -10 7 0 9 -3 9 -10 -2 -9 -13
-14 -7 -11 13 0 4 -8 7 -18 7 -11 0 -23 5 -26 10 -8 13 7 13 42 -1 15 -6 49
-11 75 -10 25 1 49 -3 53 -9 3 -6 10 -8 15 -5 5 3 11 1 15 -5 5 -9 -15 -15
-37 -11 -5 0 -8 -3 -8 -9 0 -14 64 -12 78 2 8 8 12 9 12 1 0 -8 44 -11 144
-11 119 0 144 3 139 14 -4 10 0 12 11 8 9 -3 14 -10 11 -15 -3 -4 47 -9 112
-9 65 -1 133 -3 151 -4 17 -2 50 -4 72 -5 39 -1 54 -17 25 -26 -8 -3 -23 -8
-32 -11 -10 -4 -27 -8 -38 -10 -11 -1 -49 -8 -85 -14 -36 -6 -83 -13 -105 -16
-70 -9 -169 -24 -195 -29 -14 -3 -86 -9 -160 -12 -74 -4 -127 -9 -117 -11 9
-2 15 -8 12 -13 -4 -5 5 -8 19 -7 13 1 22 6 20 10 -6 10 17 10 32 0 6 -4 14
-32 17 -62 4 -35 13 -60 25 -70 10 -8 21 -23 25 -33 4 -11 12 -15 18 -11 8 5
9 3 3 -7 -12 -20 -14 -40 -3 -33 13 8 11 -10 -3 -24 -18 -18 -26 -15 -43 18
-32 62 -89 60 -187 -6 -37 -25 -54 -32 -57 -22 -9 26 -60 68 -83 68 -20 0 -35
-25 -116 -188 -87 -175 -142 -313 -142 -353 0 -18 83 -65 98 -55 5 3 19 36 32
73 47 142 91 213 190 307 51 48 94 85 97 83 2 -3 -25 -63 -61 -134 -35 -71
-74 -163 -87 -203 l-22 -74 34 -28 c56 -47 74 -40 99 44 39 127 90 217 169
290 114 108 118 105 47 -37 -77 -152 -120 -305 -85 -305 6 0 9 -7 5 -15 -3 -8
-1 -15 4 -15 6 0 10 5 10 11 0 5 10 3 22 -5 12 -9 33 -16 45 -16 20 0 22 -4
17 -25 -4 -15 -2 -25 5 -25 6 0 10 3 9 8 -5 20 16 49 49 67 21 11 44 27 50 35
11 13 14 12 19 -7 4 -13 14 -23 24 -23 10 0 31 -7 46 -15 18 -9 23 -15 12 -15
-9 0 -18 -3 -21 -7 -2 -5 -2 -3 -1 4 4 17 -66 29 -76 13 -4 -6 -10 -10 -13 -8
-4 1 -15 -5 -27 -14 -11 -10 -20 -15 -20 -12 0 3 -7 -1 -14 -9 -18 -18 -32
-112 -18 -121 5 -3 13 1 16 10 3 9 13 14 20 11 8 -3 16 -2 18 4 2 5 3 -18 3
-50 0 -46 -3 -57 -12 -49 -9 7 -13 7 -13 -1 0 -7 -4 -10 -9 -6 -13 7 -34 -33
-27 -51 3 -8 -3 -23 -12 -32 -10 -10 -17 -23 -15 -29 2 -6 -1 -14 -6 -18 -6
-3 -11 -19 -11 -35 0 -23 4 -28 20 -25 24 5 27 -10 4 -19 -13 -5 -14 -9 -4
-21 7 -8 9 -15 4 -15 -5 0 -1 -7 9 -14 16 -13 16 -15 2 -30 -9 -9 -12 -16 -7
-16 5 0 17 -11 26 -25 16 -24 16 -25 -8 -25 -13 0 -27 7 -30 16 -8 22 -36 221
-38 271 -1 41 -26 105 -55 140 -25 30 -170 100 -227 108 -54 8 -116 -1 -116
-17 0 -7 -21 -33 -47 -58 -27 -25 -64 -64 -84 -85 -20 -22 -49 -50 -65 -61
-24 -18 -26 -24 -15 -37 10 -13 10 -22 -4 -51 -9 -19 -14 -44 -10 -55 3 -10 1
-22 -5 -26 -22 -14 -10 -59 26 -92 l36 -32 -22 -28 c-18 -22 -21 -24 -16 -7 4
14 2 21 -8 21 -17 0 -33 -52 -41 -134 -5 -43 -3 -63 4 -63 18 0 12 -39 -8 -51
-11 -7 -16 -19 -13 -31 2 -10 0 -18 -4 -18 -25 -1 -36 -18 -25 -39 7 -12 14
-50 16 -85 2 -35 10 -84 19 -110 18 -53 20 -94 6 -116 -7 -12 -10 -11 -16 5
-3 11 -12 34 -20 51 -14 33 -21 72 -29 175 -2 36 -12 85 -20 109 -8 23 -15 58
-15 76 0 19 -4 34 -8 34 -4 0 -6 35 -4 78 4 84 -23 247 -58 355 -20 59 -26
107 -14 107 3 0 28 -18 55 -41 41 -35 53 -40 79 -34 35 8 90 50 90 70 0 14
-108 115 -122 115 -15 0 -8 22 31 88 21 37 71 128 111 202 40 74 99 184 132
243 32 60 58 120 58 134 0 31 -59 93 -90 93 -15 0 -25 -11 -37 -37 -66 -159
-150 -300 -232 -386 -40 -43 -99 -82 -108 -73 -8 7 58 144 136 281 68 120 71
138 23 188 -27 28 -65 36 -79 15 -4 -7 -31 -61 -59 -120 -67 -140 -110 -206
-132 -204 -11 1 -18 -8 -20 -25 -4 -35 -59 -98 -112 -128 l-42 -23 7 23 c21
71 145 295 277 500 33 52 39 56 83 62 26 4 72 7 101 7 45 0 57 4 79 27 14 15
25 38 25 51 0 24 -1 24 -90 20 -50 -1 -90 -1 -90 2 1 3 7 16 15 30 22 39 18
55 -25 105 -22 26 -38 51 -35 56 4 5 2 9 -4 9 -6 0 -8 7 -5 15 4 8 13 15 21
15 8 0 11 5 7 12 -4 6 -3 8 3 5 5 -3 26 -2 46 3 24 5 37 4 37 -2 0 -6 11 -7
24 -4 15 4 26 1 30 -7 4 -8 5 -7 5 3 -3 38 0 43 16 30 13 -11 14 -10 9 4 -4 9
-1 16 6 16 8 0 11 -11 8 -30z m532 2 c0 -15 -2 -15 -10 -2 -13 20 -13 33 0 25
6 -3 10 -14 10 -23z m1113 14 c4 -10 1 -13 -9 -9 -15 6 -19 23 -5 23 5 0 11
-7 14 -14z m118 -13 c31 -30 38 -53 15 -53 -7 0 -19 14 -26 30 -7 17 -16 30
-21 30 -5 0 -9 5 -9 10 0 16 10 12 41 -17z m-1019 -27 c7 4 8 2 4 -4 -11 -18
4 -37 16 -21 8 11 9 11 5 -1 -6 -24 -44 -24 -57 -1 -7 14 -7 21 0 21 5 0 11 8
11 18 1 16 2 16 6 -1 2 -9 9 -14 15 -11z m-297 -16 c8 -13 -5 -13 -25 0 -13 8
-13 10 2 10 9 0 20 -4 23 -10z m-1360 -10 c3 -5 1 -10 -4 -10 -6 0 -11 5 -11
10 0 6 2 10 4 10 3 0 8 -4 11 -10z m1230 -22 c14 -6 25 -15 25 -20 0 -11 -18
-10 -25 2 -4 6 -11 7 -17 4 -6 -4 -8 -2 -4 4 3 5 0 13 -6 15 -7 3 -10 6 -6 6
4 1 19 -4 33 -11z m-1797 -31 c10 -1 3 -24 -25 -77 -33 -66 -42 -75 -68 -78
-23 -2 -27 0 -15 7 13 9 13 11 -2 11 -10 0 -18 -4 -18 -9 0 -5 -11 -11 -25
-13 -29 -6 -29 -6 -10 32 13 26 14 34 1 63 -7 19 -25 42 -38 53 l-25 19 106
-3 c58 -2 112 -4 119 -5z m2297 3 c3 -5 1 -10 -4 -10 -6 0 -11 5 -11 10 0 6 2
10 4 10 3 0 8 -4 11 -10z m910 -10 c-3 -5 4 -20 15 -32 12 -13 27 -30 35 -39
27 -29 16 -30 -16 -2 -36 33 -52 59 -44 73 3 6 8 10 11 10 3 0 3 -4 -1 -10z
m-770 -160 c29 0 35 -5 50 -42 15 -40 15 -43 -3 -67 -15 -21 -29 -27 -72 -29
-79 -5 -90 10 -82 108 2 22 38 42 60 34 8 -2 29 -4 47 -4z m-115 -40 c0 -5 -5
-10 -11 -10 -5 0 -7 5 -4 10 3 6 8 10 11 10 2 0 4 -4 4 -10z m-2450 -57 c-1
-22 -31 -40 -83 -52 -32 -7 -61 -10 -64 -7 -14 13 28 55 59 59 60 7 88 7 88 0z
m-1255 -18 c-16 -7 -32 -11 -35 -9 -7 8 24 24 45 23 15 0 13 -4 -10 -14z m332
9 c-3 -3 -12 -4 -19 -1 -8 3 -5 6 6 6 11 1 17 -2 13 -5z m790 -70 c-3 -3 -12
-4 -19 -1 -8 3 -5 6 6 6 11 1 17 -2 13 -5z m45 -64 c-134 -237 -129 -230 -198
-230 l-56 0 39 73 c22 39 59 102 84 140 l44 67 56 -2 57 -3 -26 -45z m1176
-76 c-121 -203 -219 -317 -290 -340 -48 -15 -26 31 69 140 121 140 183 220
195 252 7 22 24 38 52 52 23 11 42 19 43 18 2 -2 -29 -56 -69 -122z m1533 70
c10 -12 9 -13 -6 -8 -15 6 -16 4 -6 -15 10 -19 8 -29 -13 -66 -21 -35 -32 -44
-59 -47 -21 -2 -38 3 -51 16 -17 17 -18 20 -2 53 9 18 16 42 16 51 0 10 4 22
10 28 13 13 97 5 111 -12z m407 -15 c-20 -13 -28 -11 -22 5 3 8 12 12 21 9 12
-5 12 -7 1 -14z m-58 -19 c0 -5 -4 -10 -9 -10 -6 0 -13 5 -16 10 -3 6 1 10 9
10 9 0 16 -4 16 -10z m-2932 -177 l-72 -141 -23 57 -24 56 92 88 c50 48 93 86
96 84 2 -2 -29 -67 -69 -144z m717 30 c-89 -104 -123 -157 -141 -220 -28 -95
1 -147 81 -145 57 0 115 29 183 88 l52 46 0 -51 c0 -38 5 -56 20 -71 35 -35
113 -20 179 36 43 36 60 21 41 -35 -12 -36 -16 -40 -59 -46 -141 -21 -265
-137 -279 -262 -6 -57 12 -98 57 -125 31 -20 50 -23 131 -23 83 0 103 4 154
28 32 15 60 26 61 25 4 -6 27 -255 28 -305 2 -49 4 -53 25 -53 19 0 23 -4 17
-17 -4 -10 -12 -38 -16 -63 -5 -25 -11 -52 -13 -60 -3 -8 -5 -30 -5 -49 -1
-48 -8 -36 -14 24 -5 54 -62 181 -85 190 -12 4 -13 3 -2 -10 9 -11 9 -15 1
-15 -6 0 -14 7 -17 15 -4 8 -10 12 -15 10 -12 -8 -70 56 -92 103 -5 12 -14 22
-18 22 -4 0 -14 6 -21 13 -18 17 -65 37 -89 37 -11 0 -36 -12 -54 -26 -34 -25
-34 -25 -64 -8 -21 13 -27 20 -18 26 8 5 8 8 1 8 -6 0 -17 14 -24 31 -10 22
-15 27 -21 17 -7 -10 -9 -10 -9 1 0 8 7 22 15 31 19 21 9 56 -11 39 -21 -17
-36 -2 -21 22 10 17 9 22 -7 35 -11 8 -15 14 -10 14 6 0 17 19 24 43 19 63 40
108 65 143 31 41 55 101 48 120 -4 11 -9 12 -19 3 -8 -6 -14 -16 -14 -22 0
-16 -84 -116 -98 -117 -10 0 -12 8 -6 33 12 54 10 62 -13 65 -13 2 -23 7 -23
12 0 5 -17 12 -37 16 -21 4 -41 11 -44 16 -3 5 -9 -12 -12 -39 -3 -26 -15 -67
-26 -90 -12 -23 -21 -46 -21 -51 0 -12 -29 -24 -41 -16 -16 10 -10 24 11 24
11 0 20 5 20 11 0 6 -9 8 -20 4 -13 -4 -29 1 -45 13 -24 19 -24 20 -5 25 11 3
20 12 20 21 0 25 -77 19 -83 -6 -3 -10 0 -24 7 -31 18 -18 36 -95 23 -100 -16
-5 -17 -37 -1 -37 10 0 13 -9 10 -35 -5 -40 -3 -42 26 -16 13 13 18 26 14 38
-6 14 -4 15 4 7 9 -9 17 -7 33 9 l21 21 9 -23 c9 -18 5 -27 -21 -54 l-32 -33
28 -11 c80 -35 97 -63 52 -90 -16 -11 -21 -8 -39 20 -46 71 -46 71 -80 51 -17
-10 -34 -26 -37 -36 -3 -10 -9 -18 -13 -18 -14 0 -134 -125 -210 -219 -41 -50
-93 -103 -115 -118 -23 -16 -44 -32 -48 -38 -4 -5 -8 -7 -8 -3 0 11 59 108 75
124 11 12 12 20 3 39 -6 13 -15 22 -19 19 -5 -3 -9 17 -9 43 0 27 -7 76 -16
108 -8 33 -13 69 -10 79 3 11 -1 34 -9 53 -17 40 -7 42 26 7 22 -24 24 -34 26
-137 1 -98 17 -187 33 -187 3 0 16 16 29 36 14 20 63 71 109 114 84 79 84 79
71 109 -7 16 -16 28 -20 25 -4 -2 -17 12 -30 32 -16 27 -24 32 -30 22 -7 -10
-9 -10 -9 3 0 14 -14 31 -112 127 -19 18 -37 30 -41 26 -4 -4 -13 1 -21 11 -8
11 -20 16 -30 12 -21 -8 -20 -6 5 42 11 22 26 66 32 98 10 53 14 60 47 76 20
9 55 33 78 53 l42 36 0 -38 c0 -103 108 -97 237 13 58 50 176 187 251 292 31
43 50 61 70 64 15 2 31 5 35 6 5 0 -21 -34 -58 -76z m2217 49 c-7 -2 -12 -10
-12 -17 0 -17 -31 -29 -40 -15 -5 8 -14 8 -31 1 -51 -20 -200 -63 -205 -58 -3
2 8 8 23 12 15 3 35 13 45 21 9 9 55 26 103 39 48 14 90 26 92 29 3 3 12 2 21
-2 10 -4 12 -7 4 -10z m242 9 c4 -5 0 -12 -6 -14 -8 -3 -6 -6 5 -6 9 -1 17 -5
17 -11 0 -14 -11 -12 -34 5 -11 8 -14 15 -7 15 7 0 9 5 6 10 -3 6 -2 10 4 10
5 0 12 -4 15 -9z m-3714 -91 c0 -5 -17 -12 -37 -15 -21 -3 -45 -8 -55 -9 -9
-2 -35 0 -57 4 -30 5 -39 4 -32 -4 6 -7 2 -11 -15 -12 -13 -1 -35 -5 -49 -8
-20 -5 -25 -3 -25 13 0 13 7 19 25 19 13 0 22 -4 19 -9 -3 -5 2 -9 10 -9 10 0
13 6 9 17 -5 14 -1 15 28 11 19 -3 52 -2 74 2 58 11 105 11 105 0z m3915 0
c-11 -5 -27 -9 -35 -9 -9 0 -8 4 5 9 11 5 27 9 35 9 9 0 8 -4 -5 -9z m-961
-26 c10 -26 7 -49 -9 -70 -13 -17 -14 -15 -15 34 0 50 12 68 24 36z m817 -9
c-18 -8 -43 -15 -55 -14 -14 1 -7 6 19 14 54 18 78 18 36 0z m-3870 -8 c-4 -4
-18 -3 -32 2 -23 9 -22 9 8 8 18 -1 28 -6 24 -10z m39 -21 c0 -8 -11 -13 -24
-13 -22 0 -23 1 -8 18 16 19 32 17 32 -5z m2954 -12 c3 -9 6 -28 6 -42 0 -21
-2 -24 -10 -12 -8 12 -10 10 -10 -9 0 -37 -11 -17 -12 21 0 49 1 58 11 58 5 0
12 -7 15 -16z m586 -24 c-34 -11 -60 -11 -35 0 11 5 29 8 40 8 16 0 15 -2 -5
-8z m-1776 -134 c-3 -9 -10 -13 -16 -10 -5 3 -4 12 3 20 15 18 22 13 13 -10z
m206 -57 c-7 -11 -14 -18 -17 -15 -3 3 0 12 7 21 18 21 23 19 10 -6z m-2539
-6 c13 -16 12 -17 -3 -4 -10 7 -18 15 -18 17 0 8 8 3 21 -13z m4148 -16 c-15
-12 -29 -31 -33 -41 -4 -10 -9 -16 -13 -12 -10 10 17 53 41 64 32 16 33 14 5
-11z m-3985 -10 c11 -8 16 -20 13 -28 -4 -10 -6 -9 -6 4 -1 9 -7 17 -15 17 -8
0 -18 5 -21 10 -9 14 8 12 29 -3z m3512 -45 c6 -4 13 -17 16 -29 5 -19 2 -23
-19 -23 -15 0 -23 5 -20 13 2 6 0 20 -5 30 -9 18 7 24 28 9z m-3026 -26 c0 -2
-8 -10 -17 -17 -16 -13 -17 -12 -4 4 13 16 21 21 21 13z m3440 -21 c-7 -9 -16
-12 -19 -7 -3 5 -13 -6 -22 -24 -10 -21 -12 -34 -6 -34 7 0 7 -4 -1 -12 -7 -7
-12 -21 -13 -32 -1 -16 -3 -14 -9 7 -14 46 24 117 63 117 16 0 17 -2 7 -15z
m-2337 -25 c-3 -11 -9 -23 -14 -26 -10 -6 -12 29 -2 39 13 13 21 7 16 -13z
m-1418 -20 c17 -32 19 -50 7 -50 -7 0 -42 63 -42 75 0 16 22 0 35 -25z m-324
-11 c-9 -22 -10 -22 -10 -3 -1 11 2 24 6 27 12 12 14 0 4 -24z m531 20 c27 1
53 -1 58 -4 17 -10 0 -31 -27 -33 -15 -1 -36 -10 -47 -19 -12 -10 -18 -14 -14
-9 12 14 -12 36 -38 36 -14 0 -24 6 -24 15 0 9 6 12 17 8 12 -5 14 -3 8 7 -6
9 -4 11 5 5 8 -5 35 -7 62 -6z m3613 1 c-3 -5 -11 -10 -16 -10 -6 0 -7 5 -4
10 3 6 11 10 16 10 6 0 7 -4 4 -10z m-465 -20 c0 -5 -2 -10 -4 -10 -3 0 -8 5
-11 10 -3 6 -1 10 4 10 6 0 11 -4 11 -10z m-3021 -19 c30 -1 21 -11 -25 -27
-27 -9 -33 -9 -25 0 7 9 7 16 -1 24 -8 8 -6 10 8 7 11 -2 30 -4 43 -4z m1669
-3 c7 -7 12 -27 12 -44 0 -27 -10 -41 -52 -78 -83 -73 -180 -96 -232 -55 -86
67 45 186 210 188 27 1 55 -4 62 -11z m1750 -14 c0 -15 -4 -22 -10 -16 -5 5
-6 16 -2 25 9 23 12 21 12 -9z m112 -4 c-8 -5 -17 -7 -19 -4 -3 3 1 9 9 14 8
5 17 7 19 4 3 -3 -1 -9 -9 -14z m-4221 -54 c-9 -8 -10 -7 -5 7 3 10 7 28 7 40
2 16 3 14 6 -7 3 -16 -1 -34 -8 -40z m401 -24 c0 -2 -11 6 -25 19 -13 13 -25
30 -25 38 0 8 11 0 25 -19 14 -19 25 -36 25 -38z m90 58 c0 -5 -7 -7 -15 -4
-8 4 -15 8 -15 10 0 2 7 4 15 4 8 0 15 -4 15 -10z m215 -20 c-3 -5 -11 -10
-16 -10 -6 0 -7 5 -4 10 3 6 11 10 16 10 6 0 7 -4 4 -10z m3333 -35 c-2 -19 0
-35 4 -35 7 0 4 -30 -7 -67 -6 -17 -33 -5 -47 21 -10 19 -10 20 5 7 15 -12 17
-11 19 10 0 13 2 31 2 39 1 8 -5 18 -14 22 -11 5 -9 7 8 7 13 1 22 7 22 16 0
8 3 15 6 15 3 0 4 -16 2 -35z m-3283 -18 c-4 -8 -40 -34 -82 -58 -96 -55 -107
-59 -63 -21 19 17 39 31 43 32 17 0 87 64 87 79 1 14 2 14 10 -1 6 -9 8 -23 5
-31z m3202 16 c-15 -4 -16 -7 -3 -25 11 -15 12 -26 5 -40 -5 -10 -7 -22 -4
-27 3 -5 -4 -12 -15 -16 -11 -3 -20 -13 -20 -21 0 -8 -4 -14 -10 -14 -6 0 -7
18 -3 45 6 44 5 45 -23 45 -28 1 -28 1 -10 15 16 12 22 12 29 2 6 -9 7 -8 4 3
-2 9 -18 17 -38 19 -29 3 -31 5 -11 10 13 3 44 6 70 7 26 1 39 -1 29 -3z
m-2870 -50 c-3 -10 -5 -2 -5 17 0 19 2 27 5 18 2 -10 2 -26 0 -35z m143 39 c0
-4 -17 -16 -37 -27 -55 -28 -61 -29 -33 -6 14 12 30 25 35 30 12 12 35 14 35
3z m365 -1 c3 -5 1 -12 -5 -16 -5 -3 -10 1 -10 9 0 18 6 21 15 7z m-1610 -51
c32 -17 67 -38 77 -47 22 -19 24 -59 3 -66 -11 -5 -12 -1 -5 19 7 17 7 23 0
19 -6 -3 -10 1 -10 9 0 19 -50 46 -85 46 -16 0 -25 6 -25 15 0 8 -8 15 -17 15
-10 0 -25 5 -33 10 -37 24 39 8 95 -20z m400 20 c3 -5 1 -10 -4 -10 -6 0 -11
5 -11 10 0 6 2 10 4 10 3 0 8 -4 11 -10z m3452 -7 c3 -7 -3 -9 -16 -6 -12 3
-21 10 -21 15 0 13 32 6 37 -9z m-2772 -13 c3 -5 2 -10 -4 -10 -5 0 -13 5 -16
10 -3 6 -2 10 4 10 5 0 13 -4 16 -10z m3075 -2 c0 -7 -10 -24 -21 -38 -11 -14
-18 -20 -15 -14 3 6 10 23 15 38 11 28 21 34 21 14z m-3760 -18 c0 -5 -2 -10
-4 -10 -3 0 -8 5 -11 10 -3 6 -1 10 4 10 6 0 11 -4 11 -10z m-3 -42 c-3 -8 -6
-5 -6 6 -1 11 2 17 5 13 3 -3 4 -12 1 -19z m3415 -5 c2 -32 4 -38 16 -60 7
-12 17 -34 22 -50 l10 -28 -20 24 c-11 13 -20 20 -20 16 0 -4 -6 -2 -13 4 -10
8 -19 7 -33 -4 -21 -16 -79 -21 -70 -6 3 5 -2 12 -11 16 -10 3 -19 1 -21 -4
-5 -16 -22 -2 -22 18 0 16 6 17 48 10 65 -11 72 -11 72 2 0 5 -4 7 -10 4 -18
-11 -11 22 11 49 24 30 38 33 41 9z m-1925 -125 c-3 -8 -6 -5 -6 6 -1 11 2 17
5 13 3 -3 4 -12 1 -19z m-1662 -48 c3 -5 1 -10 -4 -10 -6 0 -11 5 -11 10 0 6
2 10 4 10 3 0 8 -4 11 -10z m1735 -44 c1 -6 -17 -15 -40 -22 -22 -7 -55 -26
-72 -43 -48 -47 -63 -38 -20 11 8 10 19 15 23 12 5 -3 9 0 9 6 0 22 53 58 77
51 12 -3 23 -10 23 -15z m1571 -48 c54 -3 64 -6 61 -20 -2 -10 2 -18 8 -18 6
0 -2 -12 -17 -26 -15 -15 -21 -21 -12 -15 9 6 19 8 22 4 4 -3 7 -2 7 4 0 6 9
13 20 16 11 3 20 2 20 -3 0 -4 -9 -10 -20 -13 -25 -7 -26 -27 -1 -34 12 -3 17
-11 14 -19 -7 -20 -19 -17 -43 8 l-21 22 5 -24 c2 -14 5 -28 5 -31 1 -10 45
-26 58 -22 7 2 9 11 6 19 -3 8 1 14 10 14 10 0 13 -8 9 -25 -2 -14 -11 -25
-19 -25 -8 0 -11 -5 -7 -11 4 -7 -2 -9 -16 -7 -13 1 -28 12 -34 22 -6 11 -19
29 -28 40 -21 23 -23 36 -6 36 6 0 2 9 -10 20 -13 12 -35 20 -56 20 -41 0 -50
11 -51 67 -2 41 -1 42 15 23 12 -14 32 -20 81 -22z m996 20 c-3 -8 -6 -5 -6 6
-1 11 2 17 5 13 3 -3 4 -12 1 -19z m-1717 -33 c0 -4 -7 -19 -15 -34 -8 -16
-11 -31 -8 -35 4 -3 1 -6 -6 -6 -8 0 -11 6 -7 16 3 9 9 27 12 40 5 20 24 35
24 19z m1174 -49 c-6 -16 -34 -30 -42 -21 -8 7 19 35 34 35 7 0 11 -6 8 -14z
m-249 -26 c-3 -5 -18 -10 -33 -10 -21 0 -24 2 -12 10 20 13 53 13 45 0z m-936
-22 c0 -7 -4 -22 -9 -33 -7 -17 -9 -15 -9 13 -1 17 4 32 9 32 6 0 10 -6 9 -12z
m929 -65 c-4 -21 -29 -25 -46 -7 -11 12 -9 14 13 14 19 0 25 5 26 23 1 16 2
18 6 5 2 -10 3 -25 1 -35z m-208 7 c0 -5 5 -10 11 -10 15 0 73 -59 82 -82 9
-26 -10 -22 -24 4 -7 13 -22 30 -33 39 -65 52 -71 58 -53 59 9 0 17 -4 17 -10z
m-549 -57 c-8 -15 -10 -15 -11 -2 0 17 10 32 18 25 2 -3 -1 -13 -7 -23z m713
11 c4 -10 1 -14 -6 -12 -15 5 -23 28 -10 28 5 0 13 -7 16 -16z m-170 -20 c4
-11 2 -12 -14 -4 -27 14 -34 29 -11 23 11 -3 22 -11 25 -19z m153 0 c3 -8 12
-13 20 -10 8 3 11 1 8 -4 -11 -17 -44 -11 -55 10 -9 16 -8 20 5 20 9 0 18 -7
22 -16z m-127 -59 c0 -14 -4 -25 -9 -25 -10 0 -21 36 -13 44 12 13 22 5 22
-19z m158 8 c9 -9 17 -21 17 -27 0 -6 15 -15 33 -21 29 -8 45 -25 23 -25 -26
0 -70 14 -66 20 9 14 -6 38 -27 43 -11 3 -17 10 -13 16 9 15 14 14 33 -6z
m915 -3 c3 -11 1 -20 -4 -20 -5 0 -9 9 -9 20 0 11 2 20 4 20 2 0 6 -9 9 -20z
m-3149 -69 c47 -71 89 -166 83 -184 -1 -5 -23 29 -47 77 -24 48 -51 97 -60
109 -18 23 -35 67 -26 67 3 0 26 -31 50 -69z m1676 55 c0 -7 -11 -38 -24 -68
-14 -32 -22 -65 -19 -80 3 -14 0 -29 -6 -32 -6 -4 -11 -17 -12 -29 -1 -16 -3
-13 -9 10 -7 33 0 98 19 171 9 31 17 42 31 42 11 0 20 -6 20 -14z m515 -35
c-6 -5 -25 10 -25 20 0 5 6 4 14 -3 8 -7 12 -15 11 -17z m375 11 c0 -9 -58 -7
-67 2 -4 3 10 6 30 6 21 0 37 -4 37 -8z m21 -45 c-13 -13 -15 11 -4 40 7 16 8
15 11 -6 2 -13 -1 -28 -7 -34z m522 22 l22 -21 -30 3 c-35 4 -57 17 -49 30 9
15 34 10 57 -12z m-574 -8 c10 -6 3 -9 -22 -8 -20 0 -34 5 -31 9 7 11 35 10
53 -1z m-241 -20 c-2 -5 6 -16 17 -25 15 -11 17 -17 8 -27 -16 -16 -43 -4 -43
21 0 11 -4 20 -10 20 -5 0 -10 5 -10 10 0 6 9 10 20 10 11 0 19 -4 18 -9z
m-917 -34 c-10 -9 -11 -8 -5 6 3 10 9 15 12 12 3 -3 0 -11 -7 -18z m987 -116
c3 -8 -1 -12 -9 -9 -7 2 -15 10 -17 17 -3 8 1 12 9 9 7 -2 15 -10 17 -17z
m-1028 -20 c0 -19 -26 -48 -36 -39 -7 8 14 58 26 58 5 0 10 -8 10 -19z m1030
-105 c0 -9 -40 -13 -46 -5 -3 5 6 9 20 9 14 0 26 -2 26 -4z m57 -2 c-3 -3 -12
-4 -19 -1 -8 3 -5 6 6 6 11 1 17 -2 13 -5z"/>
<path d="M4142 2570 c0 -14 2 -19 5 -12 2 6 2 18 0 25 -3 6 -5 1 -5 -13z"/>
<path d="M3993 2535 c0 -22 2 -30 4 -17 2 12 2 30 0 40 -3 9 -5 -1 -4 -23z"/>
<path d="M3960 2506 c0 -9 5 -16 10 -16 6 0 10 4 10 9 0 6 -4 13 -10 16 -5 3
-10 -1 -10 -9z"/>
<path d="M4006 2452 c-3 -6 -1 -14 5 -17 14 -9 20 -2 10 14 -6 8 -11 9 -15 3z"/>
<path d="M4215 2450 c-3 -5 -1 -18 4 -27 9 -16 10 -14 11 10 0 28 -5 34 -15
17z"/>
<path d="M4051 2403 c-1 -18 4 -33 9 -33 12 0 12 17 0 45 -7 17 -9 15 -9 -12z"/>
<path d="M4086 2381 c-3 -3 6 -8 20 -9 13 -1 24 2 24 6 0 10 -38 13 -44 3z"/>
<path d="M2230 2400 c8 -5 20 -10 25 -10 6 0 3 5 -5 10 -8 5 -19 10 -25 10 -5
0 -3 -5 5 -10z"/>
<path d="M2058 2223 c-24 -6 -23 -23 2 -23 11 0 20 7 20 15 0 8 -1 14 -2 14
-2 -1 -11 -3 -20 -6z"/>
<path d="M3530 2330 c0 -14 15 -19 29 -11 9 6 7 10 -8 14 -12 3 -21 1 -21 -3z"/>
<path d="M3180 2300 c-5 -3 -8 -14 -6 -25 2 -11 -2 -23 -8 -27 -8 -5 -7 -11 2
-20 17 -17 15 -28 -5 -21 -14 6 -13 2 5 -21 12 -16 19 -32 16 -37 -3 -5 4 -9
15 -9 14 0 19 5 15 15 -4 8 1 26 10 40 9 14 13 25 9 25 -5 0 -14 9 -21 20 -12
20 -12 21 12 5 14 -9 29 -14 34 -11 5 3 7 -7 5 -22 l-5 -27 17 23 c9 13 14 30
11 38 -4 10 -2 13 7 7 6 -4 4 4 -5 17 -9 14 -21 24 -27 23 -31 -8 -36 -7 -34
2 2 11 -31 15 -47 5z"/>
<path d="M3310 2239 c0 -15 18 -19 23 -6 3 8 -1 14 -9 14 -8 0 -14 -4 -14 -8z"/>
<path d="M3286 2204 c-8 -21 -8 -21 9 -21 8 0 12 4 9 9 -3 4 0 8 6 8 6 0 8 5
5 10 -9 15 -22 12 -29 -6z"/>
<path d="M3335 2200 c3 -5 8 -10 11 -10 2 0 4 5 4 10 0 6 -5 10 -11 10 -5 0
-7 -4 -4 -10z"/>
<path d="M3230 2185 c-10 -12 -10 -15 4 -15 9 0 16 7 16 15 0 8 -2 15 -4 15
-2 0 -9 -7 -16 -15z"/>
<path d="M3200 2120 c0 -16 17 -20 28 -7 8 10 6 13 -9 14 -10 1 -19 -2 -19 -7z"/>
<path d="M3555 2120 c4 -6 11 -8 16 -5 14 9 11 15 -7 15 -8 0 -12 -5 -9 -10z"/>
<path d="M3720 1270 c0 -12 28 -25 36 -17 3 3 -4 10 -15 17 -15 7 -21 7 -21 0z"/>
<path d="M3831 2384 c0 -11 3 -14 6 -6 3 7 2 16 -1 19 -3 4 -6 -2 -5 -13z"/>
<path d="M4273 1055 c0 -27 2 -38 4 -22 2 15 2 37 0 50 -2 12 -4 0 -4 -28z"/>
<path d="M4109 973 c-13 -16 -12 -17 4 -4 16 13 21 21 13 21 -2 0 -10 -8 -17
-17z"/>
<path d="M3810 3095 c0 -18 5 -25 20 -25 15 0 20 7 20 25 0 18 -5 25 -20 25
-15 0 -20 -7 -20 -25z"/>
<path d="M3861 3064 c0 -55 0 -56 19 -39 28 25 28 95 1 95 -16 0 -19 -8 -20
-56z"/>
<path d="M3917 3113 c-4 -3 -7 -17 -7 -29 0 -35 35 -28 38 8 2 27 -15 38 -31
21z"/>
<path d="M3960 3108 c0 -5 6 -6 13 -2 9 5 9 4 0 -6 -14 -15 -6 -40 12 -40 21
0 28 19 13 37 -9 12 -9 15 0 9 6 -4 12 -3 12 2 0 5 -11 10 -25 10 -14 0 -25
-5 -25 -10z"/>
<path d="M4035 3100 c2 -14 4 -27 4 -29 2 -10 25 20 27 34 2 12 -1 13 -11 5
-10 -8 -14 -7 -18 2 -3 7 -4 2 -2 -12z"/>
<path d="M4146 3109 c3 -5 -1 -9 -9 -9 -8 0 -17 -6 -20 -14 -10 -26 5 -26 25
0 11 14 23 23 26 20 3 -3 -3 -15 -13 -26 -18 -20 -17 -20 7 -20 14 0 34 11 46
25 12 14 21 26 19 26 -12 7 -86 5 -81 -2z"/>
<path d="M4265 3104 c8 -9 23 -13 33 -10 9 3 4 -5 -12 -20 -22 -19 -26 -28
-17 -37 9 -9 14 -8 21 3 5 8 6 18 4 22 -10 17 12 7 29 -12 18 -22 52 -17 43 7
-3 8 -1 11 4 8 12 -7 54 4 46 12 -3 4 6 12 21 20 19 10 28 10 33 2 5 -7 9 -5
13 5 5 14 -4 16 -66 16 -45 0 -78 -5 -86 -12 -8 -7 -11 -8 -8 -2 4 7 -8 11
-34 12 -37 2 -39 1 -24 -14z"/>
<path d="M3914 3013 c3 -21 6 -46 6 -55 0 -27 19 -21 33 10 6 15 17 31 24 35
7 4 17 16 22 26 9 16 5 18 -41 20 l-51 1 7 -37z m66 23 c0 -3 -7 -12 -16 -20
-23 -23 -40 -19 -19 4 16 18 35 26 35 16z"/>
<path d="M4210 3040 c0 -6 -8 -10 -17 -8 -13 2 -18 -5 -20 -30 -2 -23 1 -32
10 -29 6 2 12 9 12 15 0 6 8 20 17 31 10 12 13 23 8 26 -6 4 -10 1 -10 -5z"/>
<path d="M4120 3035 c0 -7 30 -13 34 -7 3 4 -4 9 -15 9 -10 1 -19 0 -19 -2z"/>
<path d="M4085 3000 c-8 -14 3 -30 21 -30 8 0 13 -5 12 -12 -2 -6 5 -14 15
-16 15 -3 14 1 -5 32 -24 37 -33 42 -43 26z"/>
<path d="M4216 3001 c-4 -6 -4 -15 -1 -21 3 -5 -1 -10 -9 -10 -9 0 -16 -7 -16
-15 0 -24 37 -18 43 7 7 26 -7 57 -17 39z"/>
<path d="M3978 2947 c-30 -25 -35 -37 -15 -37 6 0 20 14 29 30 9 17 16 30 15
30 -1 -1 -14 -11 -29 -23z"/>
<path d="M4045 2941 l-15 -29 61 0 c85 1 90 18 5 20 -23 1 -25 3 -12 10 9 5
14 13 11 19 -12 18 -35 9 -50 -20z"/>
<path d="M3870 2856 c0 -3 9 -10 20 -16 11 -6 20 -8 20 -6 0 3 -9 10 -20 16
-11 6 -20 8 -20 6z"/>
<path d="M3705 2840 c-16 -7 -14 -9 12 -7 17 0 29 5 27 9 -6 10 -13 9 -39 -2z"/>
<path d="M4685 2713 c8 -35 9 -36 34 -28 20 6 20 7 -4 31 -31 31 -39 30 -30
-3z"/>
<path d="M4470 2669 c0 -5 5 -7 10 -4 6 3 10 8 10 11 0 2 -4 4 -10 4 -5 0 -10
-5 -10 -11z"/>
<path d="M4832 2597 c-8 -10 -6 -13 11 -14 12 0 16 1 9 4 -6 3 -10 9 -6 14 8
14 -2 11 -14 -4z"/>
<path d="M5134 2445 c26 -20 42 -19 22 0 -8 8 -21 15 -28 15 -8 -1 -6 -6 6
-15z"/>
<path d="M958 2443 c6 -2 18 -2 25 0 6 3 1 5 -13 5 -14 0 -19 -2 -12 -5z"/>
<path d="M640 2359 c0 -5 9 -9 20 -9 11 0 20 2 20 4 0 2 -9 6 -20 9 -11 3 -20
1 -20 -4z"/>
<path d="M730 2352 c0 -12 19 -26 26 -19 2 2 -2 10 -11 17 -9 8 -15 8 -15 2z"/>
<path d="M550 2332 c0 -9 62 -31 95 -33 39 -3 56 1 50 11 -3 6 1 10 9 10 9 0
16 -4 16 -10 0 -5 7 -7 16 -3 31 12 -8 21 -80 18 -39 -2 -79 1 -88 6 -10 5
-18 6 -18 1z"/>
<path d="M845 2193 c25 -6 44 -23 26 -23 -7 0 -9 -4 -6 -10 9 -15 25 -12 25 5
0 9 10 15 23 16 21 1 21 1 -3 9 -14 4 -38 8 -55 8 -20 0 -23 -2 -10 -5z"/>
<path d="M230 1789 c0 -5 5 -7 10 -4 6 3 10 8 10 11 0 2 -4 4 -10 4 -5 0 -10
-5 -10 -11z"/>
<path d="M7 1393 c-4 -3 -7 -27 -7 -51 0 -57 8 -51 14 11 5 48 4 52 -7 40z"/>
<path d="M3 1185 c0 -22 2 -30 4 -17 2 12 2 30 0 40 -3 9 -5 -1 -4 -23z"/>
</g>
</svg>
